<svg width="48" height="48" viewBox="0 0 48 48" fill="none" xmlns="http://www.w3.org/2000/svg">
<g clip-path="url(#clip0_45_565)">
<path d="M44.001 27.998C46.209 27.998 48 29.789 48 32V41.999C48 44.207 46.209 45.998 44.001 45.998H27.999C26.9384 45.998 25.9212 45.5767 25.1713 44.8267C24.4213 44.0768 24 43.0596 24 41.999V32C24 29.789 25.791 27.998 27.999 27.998H44.001ZM44.001 30.998H27.999C27.8676 30.998 27.7374 31.0239 27.616 31.0743C27.4946 31.1247 27.3843 31.1986 27.2915 31.2917C27.1987 31.3847 27.1252 31.4952 27.0752 31.6168C27.0252 31.7383 26.9996 31.8685 27 32V41.999C27 42.551 27.45 42.998 27.999 42.998H44.001C44.553 42.998 45 42.551 45 41.999V32C45.0004 31.8685 44.9748 31.7383 44.9248 31.6168C44.8748 31.4952 44.8013 31.3847 44.7085 31.2917C44.6157 31.1986 44.5054 31.1247 44.384 31.0743C44.2626 31.0239 44.1324 30.998 44.001 30.998ZM8.001 31.499C9.45982 31.499 10.8589 32.0785 11.8904 33.1101C12.922 34.1416 13.5015 35.5407 13.5015 36.9995C13.5015 38.4583 12.922 39.8574 11.8904 40.8889C10.8589 41.9205 9.45982 42.5 8.001 42.5C6.54218 42.5 5.1431 41.9205 4.11156 40.8889C3.08002 39.8574 2.5005 38.4583 2.5005 36.9995C2.5005 35.5407 3.08002 34.1416 4.11156 33.1101C5.1431 32.0785 6.54218 31.499 8.001 31.499ZM21 37.499C21.3748 37.4983 21.7363 37.638 22.0133 37.8905C22.2903 38.1431 22.4628 38.4902 22.4966 38.8635C22.5305 39.2368 22.4234 39.6092 22.1963 39.9075C21.9693 40.2058 21.6388 40.4082 21.27 40.475L21 40.499H15.999C15.6242 40.4997 15.2626 40.36 14.9857 40.1075C14.7087 39.8549 14.5362 39.5078 14.5024 39.1345C14.4685 38.7612 14.5756 38.3888 14.8027 38.0905C15.0297 37.7922 15.3602 37.5898 15.729 37.523L15.999 37.499H21ZM8.001 34.499C7.33783 34.499 6.70181 34.7624 6.23288 35.2314C5.76395 35.7003 5.5005 36.3363 5.5005 36.9995C5.5005 37.6627 5.76395 38.2987 6.23288 38.7676C6.70181 39.2365 7.33783 39.5 8.001 39.5C8.66417 39.5 9.30019 39.2365 9.76912 38.7676C10.2381 38.2987 10.5015 37.6627 10.5015 36.9995C10.5015 36.3363 10.2381 35.7003 9.76912 35.2314C9.30019 34.7624 8.66417 34.499 8.001 34.499ZM8.001 21.5C8.35208 21.4999 8.69207 21.6229 8.96178 21.8477C9.23148 22.0724 9.41381 22.3847 9.477 22.73L9.501 23V27.998C9.50169 28.3728 9.36201 28.7343 9.10948 29.0113C8.85694 29.2883 8.50984 29.4608 8.13653 29.4946C7.76323 29.5285 7.39077 29.4214 7.09251 29.1943C6.79424 28.9673 6.59178 28.6368 6.525 28.268L6.501 27.998V23C6.501 22.6022 6.65904 22.2206 6.94034 21.9393C7.22164 21.658 7.60318 21.5 8.001 21.5ZM39.999 18.5C40.3501 18.4999 40.6901 18.6229 40.9598 18.8477C41.2295 19.0724 41.4118 19.3847 41.475 19.73L41.499 20V24.998C41.4997 25.3728 41.36 25.7343 41.1075 26.0113C40.8549 26.2883 40.5078 26.4608 40.1345 26.4946C39.7612 26.5285 39.3888 26.4214 39.0905 26.1943C38.7922 25.9673 38.5898 25.6368 38.523 25.268L38.499 24.998V20C38.499 19.6022 38.657 19.2206 38.9383 18.9393C39.2196 18.658 39.6012 18.5 39.999 18.5ZM20.001 2C22.209 2 24 3.791 24 5.999V15.998C24 18.209 22.209 20 20.001 20H3.999C3.47359 20 2.95333 19.8965 2.46796 19.6953C1.98258 19.4941 1.5416 19.1993 1.17022 18.8277C0.798839 18.456 0.504337 18.0148 0.303545 17.5293C0.102753 17.0437 -0.00039303 16.5234 1.12538e-06 15.998V5.999C1.12538e-06 3.791 1.791 2 3.999 2H20.001ZM20.001 5H3.999C3.73405 5 3.47995 5.10525 3.2926 5.2926C3.10525 5.47995 3 5.73405 3 5.999V15.998C3 16.55 3.45 17 3.999 17H20.001C20.553 17 21 16.55 21 15.998V5.999C21 5.73405 20.8947 5.47995 20.7074 5.2926C20.5201 5.10525 20.2659 5 20.001 5ZM39.999 5.498C41.4578 5.498 42.8569 6.07751 43.8884 7.10906C44.92 8.1406 45.4995 9.53968 45.4995 10.9985C45.4995 12.4573 44.92 13.8564 43.8884 14.8879C42.8569 15.9195 41.4578 16.499 39.999 16.499C38.5402 16.499 37.1411 15.9195 36.1096 14.8879C35.078 13.8564 34.4985 12.4573 34.4985 10.9985C34.4985 9.53968 35.078 8.1406 36.1096 7.10906C37.1411 6.07751 38.5402 5.498 39.999 5.498ZM39.999 8.498C39.3358 8.498 38.6998 8.76144 38.2309 9.23038C37.7619 9.69931 37.4985 10.3353 37.4985 10.9985C37.4985 11.6617 37.7619 12.2977 38.2309 12.7666C38.6998 13.2356 39.3358 13.499 39.999 13.499C40.6622 13.499 41.2982 13.2356 41.7671 12.7666C42.236 12.2977 42.4995 11.6617 42.4995 10.9985C42.4995 10.3353 42.236 9.69931 41.7671 9.23038C41.2982 8.76144 40.6622 8.498 39.999 8.498ZM31.5 6.5C31.8748 6.49931 32.2363 6.63899 32.5133 6.89152C32.7903 7.14406 32.9628 7.49116 32.9966 7.86446C33.0305 8.23777 32.9234 8.61023 32.6963 8.90849C32.4693 9.20676 32.1388 9.40922 31.77 9.476L31.5 9.5H26.499C26.1242 9.50069 25.7626 9.36101 25.4856 9.10847C25.2086 8.85594 25.0362 8.50884 25.0024 8.13553C24.9685 7.76223 25.0756 7.38977 25.3027 7.0915C25.5297 6.79324 25.8602 6.59078 26.229 6.524L26.499 6.5H31.5Z" fill="#135DCD"/>
</g>
<defs>
<clipPath id="clip0_45_565">
<rect width="48" height="48" fill="white" transform="translate(0 -0.000976562)"/>
</clipPath>
</defs>
</svg>
