<svg width="49" height="39" viewBox="0 0 49 39" fill="none" xmlns="http://www.w3.org/2000/svg">
<circle cx="25.5" cy="19.5" r="17.5" fill="white" stroke="#135DCD" stroke-width="2.8"/>
<path d="M5.0704 21.7692C3.04481 23.2179 2.01004 24.5761 2.30313 25.6607C3.11786 28.6755 13.8843 28.4345 26.3507 25.1225V25.1225C38.817 21.8105 48.2626 16.6815 47.4478 13.6667C47.1588 12.5971 45.6171 11.9373 43.1912 11.6791" stroke="#135DCD" stroke-width="2.8" stroke-linecap="round"/>
<path fill-rule="evenodd" clip-rule="evenodd" d="M36.3604 13.9559C35.4933 12.558 34.3025 11.3686 32.8795 10.4993C31.5694 9.69901 30.0623 9.17015 28.4297 9" fill="white"/>
<path d="M36.3604 13.9559C35.4933 12.558 34.3025 11.3686 32.8795 10.4993C31.5694 9.69901 30.0623 9.17015 28.4297 9" stroke="#135DCD" stroke-width="2.8" stroke-linecap="round" stroke-dasharray="4.2"/>
<circle cx="19.5" cy="16.5" r="4.5" fill="white" stroke="#135DCD" stroke-width="2.8"/>
</svg>
