<svg width="52" height="49" viewBox="0 0 52 49" fill="none" xmlns="http://www.w3.org/2000/svg">
<path d="M10.7233 19.4785C10.6433 19.4785 10.5686 19.4898 10.4939 19.5011H10.4725C10.2791 19.5011 10.0877 19.5334 9.90901 19.5962C9.73036 19.659 9.56803 19.7511 9.43129 19.8671C9.29456 19.9831 9.18609 20.1208 9.11209 20.2724C9.03809 20.424 9 20.5865 9 20.7506C9 20.9146 9.03809 21.0771 9.11209 21.2287C9.18609 21.3803 9.29456 21.518 9.43129 21.634C9.56803 21.7501 9.73036 21.8421 9.90901 21.9049C10.0877 21.9677 10.2791 22 10.4725 22H27.844C29.8234 22 29.6473 19.4785 27.844 19.4785H10.7233ZM10.4725 12C10.082 12 9.70744 12.1316 9.43129 12.366C9.15514 12.6003 9 12.9181 9 13.2494C9 13.5808 9.15514 13.8986 9.43129 14.1329C9.70744 14.3672 10.082 14.4989 10.4725 14.4989H36.6232C36.6552 14.4989 36.6845 14.4921 36.7139 14.4921H37.2874C39.5709 14.4921 39.5709 12 37.2874 12H10.4725Z" fill="#135DCD"/>
<path d="M48.0862 40.6229H42.8077V38.9692C43.9728 38.6214 44.9739 37.8658 45.6278 36.8406C46.2817 35.8155 46.5448 34.5892 46.3689 33.386C46.1931 32.1828 45.59 31.0831 44.67 30.288C43.7501 29.4929 42.5746 29.0554 41.3587 29.0557C40.693 29.0545 40.0336 29.1845 39.4182 29.4384C38.8028 29.6923 38.2435 30.0649 37.7723 30.5351C37.3011 31.0053 36.9272 31.5638 36.6719 32.1786C36.4167 32.7934 36.2852 33.4525 36.2849 34.1182C36.2849 36.4064 37.8104 38.3459 39.9074 38.9692V40.6229H34.6987C33.8639 40.6229 32.6602 41.1022 32.6602 42.5849V47.3864C32.6602 48.4214 33.8144 48.9389 34.2127 48.9389H48.5024C49.6432 48.9389 50.0549 48.2144 50.0549 47.3864V42.5849C50.0618 42.3246 50.0154 42.0657 49.9187 41.8239C49.8219 41.5822 49.6769 41.3628 49.4923 41.1791C49.3078 40.9954 49.0877 40.8513 48.8455 40.7557C48.6033 40.66 48.3442 40.6149 48.0839 40.6229H48.0862ZM39.0929 34.1159C39.0929 33.515 39.3316 32.9387 39.7565 32.5138C40.1814 32.0889 40.7577 31.8502 41.3587 31.8502C41.9596 31.8502 42.5359 32.0889 42.9608 32.5138C43.3857 32.9387 43.6244 33.515 43.6244 34.1159C43.6244 34.7168 43.3857 35.2931 42.9608 35.718C42.5359 36.143 41.9596 36.3817 41.3587 36.3817C40.7577 36.3817 40.1814 36.143 39.7565 35.718C39.3316 35.2931 39.0929 34.7168 39.0929 34.1159ZM47.5709 45.6674C47.5709 45.887 47.4837 46.0976 47.3284 46.2529C47.1731 46.4082 46.9625 46.4954 46.7429 46.4954H35.9519C35.7323 46.4954 35.5217 46.4082 35.3664 46.2529C35.2111 46.0976 35.1239 45.887 35.1239 45.6674V44.0092C35.1239 43.5524 35.4952 43.1812 35.9519 43.1812H46.7429C47.1997 43.1812 47.5709 43.5524 47.5709 44.0092V45.6674Z" fill="#135DCD"/>
<path d="M48.5892 22.6176V6.96465C48.5892 4.64505 46.7087 2.76465 44.3891 2.76465H6.96562C4.64603 2.76465 2.76562 4.64505 2.76562 6.96465V43.2705C2.76562 45.5901 4.64603 47.4705 6.96563 47.4705H25.1774" stroke="#135DCD" stroke-width="3" stroke-linecap="round"/>
</svg>
