<svg width="42" height="39" viewBox="0 0 42 39" fill="none" xmlns="http://www.w3.org/2000/svg">
<g clip-path="url(#clip0_45_457)">
<path d="M18.0126 39C17.2241 39 16.4433 38.8448 15.7149 38.5433C14.9864 38.2417 14.3245 37.7998 13.767 37.2426C12.641 36.1174 12.0084 34.5913 12.0084 33V21C12.0084 19.4087 12.641 17.8826 13.767 16.7574C14.893 15.6321 16.4202 15 18.0126 15H27.0188V18H18.0126C17.2164 18 16.4528 18.3161 15.8898 18.8787C15.3268 19.4413 15.0105 20.2044 15.0105 21V33C15.0105 33.7957 15.3268 34.5587 15.8898 35.1213C16.4528 35.6839 17.2164 36 18.0126 36H36.0251C36.8213 36 37.5849 35.6839 38.1479 35.1213C38.7109 34.5587 39.0272 33.7957 39.0272 33V21C39.0272 20.2044 38.7109 19.4413 38.1479 18.8787C37.5849 18.3161 36.8213 18 36.0251 18V15C37.6175 15 39.1447 15.6321 40.2707 16.7574C41.3967 17.8826 42.0293 19.4087 42.0293 21V33C42.0293 34.5913 41.3967 36.1174 40.2707 37.2426C39.1447 38.3679 37.6175 39 36.0251 39H18.0126ZM9.00628 27H6.00419C4.41178 27 2.88459 26.3679 1.75859 25.2426C0.632582 24.1174 0 22.5913 0 21L0 6C0 4.4087 0.632582 2.88258 1.75859 1.75736C2.88459 0.632141 4.41178 0 6.00419 0L27.0188 0C28.6113 1.0101e-08 30.1384 0.632141 31.2644 1.75736C32.3904 2.88258 33.023 4.4087 33.023 6V21C33.023 22.5913 32.3904 24.1174 31.2644 25.2426C30.1384 26.3679 28.6113 27 27.0188 27H18.0126V24H27.0188C27.8151 24 28.5786 23.6839 29.1416 23.1213C29.7046 22.5587 30.0209 21.7957 30.0209 21V6C30.0209 5.20435 29.7046 4.44129 29.1416 3.87868C28.5786 3.31607 27.8151 3 27.0188 3H6.00419C5.20798 3 4.44439 3.31607 3.88139 3.87868C3.31839 4.44129 3.00209 5.20435 3.00209 6V21C3.00209 21.7957 3.31839 22.5587 3.88139 23.1213C4.44439 23.6839 5.20798 24 6.00419 24H9.00628V27Z" fill="#135DCD"/>
</g>
<defs>
<clipPath id="clip0_45_457">
<rect width="42" height="39" fill="white"/>
</clipPath>
</defs>
</svg>
