<?xml version="1.0" encoding="UTF-8"?>
<svg width="38px" height="46px" viewBox="0 0 38 46" version="1.1" xmlns="http://www.w3.org/2000/svg" xmlns:xlink="http://www.w3.org/1999/xlink">
    <!-- Generator: Sketch 53.2 (72643) - https://sketchapp.com -->
    <title>Group 2</title>
    <desc>Created with Sketch.</desc>
    <g id="Page-1" stroke="none" stroke-width="1" fill="none" fill-rule="evenodd">
        <g id="1-page" transform="translate(-359.000000, -589.000000)" stroke="#135DCD" stroke-width="2.8">
            <g id="Group-9" transform="translate(360.000000, 384.000000)">
                <g id="Group-13" transform="translate(0.000000, 189.000000)">
                    <g id="Group-16" transform="translate(1.000000, 0.000000)">
                        <g id="Group-2" transform="translate(0.000000, 18.000000)">
                            <path d="M17,0 L32.8567269,4.96690418 C33.5369839,5.17998543 34,5.81021856 34,6.52306717 C34,11.8994303 34,17.2757935 34,22.6521566 C34,23.2190316 32.371815,31.2286912 27.3342223,35.8538696 C23.9758271,38.937322 20.5310864,40.9860321 17,42 C13.4689136,40.9860321 10.0241729,38.937322 6.66577773,35.8538696 C1.62818501,31.2286912 -3.55271368e-15,23.2190316 -3.55271368e-15,22.6521566 C-3.55271368e-15,17.2757935 -3.55271368e-15,11.8994303 -3.55271368e-15,6.52306717 C-3.95658083e-15,5.81021856 0.463016148,5.17998543 1.1432731,4.96690418 L17,0 Z" id="Combined-Shape-Copy-3"></path>
                            <ellipse id="Oval-Copy-2" cx="17" cy="18.2" rx="5.66666667" ry="5.6"></ellipse>
                        </g>
                    </g>
                </g>
            </g>
        </g>
    </g>
</svg>