<?xml version="1.0" encoding="UTF-8"?>
<svg width="17px" height="21px" viewBox="0 0 17 21" version="1.1" xmlns="http://www.w3.org/2000/svg" xmlns:xlink="http://www.w3.org/1999/xlink">
    <!-- Generator: Sketch 53.1 (72631) - https://sketchapp.com -->
    <title>安卓</title>
    <desc>Created with Sketch.</desc>
    <g id="2-7-首页安装方式修改" stroke="none" stroke-width="1" fill="none" fill-rule="evenodd">
        <g id="首页" transform="translate(-387.000000, -628.000000)" fill="#021C31" fill-rule="nonzero">
            <g id="Group-3" transform="translate(360.000000, 419.000000)">
                <g id="Group-9" transform="translate(0.000000, 199.000000)">
                    <g id="Group-2">
                        <g id="安卓" transform="translate(27.000000, 10.000000)">
                            <path d="M15.7507214,6.579375 C15.0848437,6.579375 14.5448724,7.15994531 14.5448724,7.87607812 L14.5448724,12.9434766 C14.5448724,13.6596797 15.0848216,14.2402266 15.7507214,14.2402266 C16.4167096,14.2402266 16.9565703,13.6596562 16.9565703,12.9434766 L16.9565703,7.87607812 C16.9565924,7.15994531 16.4167539,6.579375 15.7507214,6.579375 Z M1.20598177,6.579375 C0.54003776,6.579375 0.0001328125,7.15994531 0.0001328125,7.87607812 L0.0001328125,12.9434766 C0.0001328125,13.6596797 0.54003776,14.2402266 1.20598177,14.2402266 C1.87192578,14.2402266 2.41183073,13.6596562 2.41183073,12.9434766 L2.41183073,7.87607812 C2.41183073,7.15994531 1.87192578,6.579375 1.20598177,6.579375 Z M3.13747396,6.61863281 L3.13747396,15.8767734 C3.13747396,16.4266641 3.55848958,16.8724219 4.07785286,16.8724219 L5.15215104,16.8724219 L5.15215104,19.6917891 C5.15215104,20.4079922 5.69205599,20.9885391 6.358,20.9885391 C7.02398828,20.9885391 7.56389323,20.4079688 7.56389323,19.6917891 L7.56389323,16.8723984 L9.44066667,16.8723984 L9.44066667,19.6917656 C9.44066667,20.4079687 9.98061589,20.9885156 10.6465156,20.9885156 C11.3125039,20.9885156 11.8524753,20.4079453 11.8524753,19.6917656 L11.8524753,16.8723984 L12.9266628,16.8723984 C13.4461146,16.8723984 13.8670859,16.4266641 13.8670859,15.87675 L13.8670859,6.61863281 L3.13747396,6.61863281 L3.13747396,6.61863281 Z M11.0216667,1.82123437 L12.0128242,0.297820312 C12.071638,0.207328125 12.0570286,0.0884765625 11.9801081,0.0323671875 C11.9031875,-0.0236953125 11.7931302,0.0041484375 11.7343164,0.0946875 L10.7047539,1.67714062 C10.0263034,1.39413281 9.2724375,1.23639844 8.47835156,1.23639844 C7.68426562,1.23639844 6.93044401,1.39410937 6.25199349,1.67714062 L5.22243099,0.0946875 C5.16357292,0.0041484375 5.05351562,-0.023671875 4.97659505,0.0323671875 C4.89967448,0.0885 4.88508724,0.207351562 4.94392318,0.297820312 L5.93508073,1.82123437 C4.35930469,2.59741406 3.25419401,4.07221875 3.11354557,5.79358594 L13.8431797,5.79358594 C13.7025091,4.07221875 12.5973984,2.59741406 11.0216667,1.82123437 L11.0216667,1.82123437 Z M6.21500521,4.222125 C5.88715755,4.222125 5.62135547,3.94075781 5.62135547,3.59355469 C5.62135547,3.24642187 5.88713542,2.96498437 6.21500521,2.96498437 C6.54289714,2.96498437 6.80865495,3.24639844 6.80865495,3.59355469 C6.80865495,3.94073437 6.54291927,4.222125 6.21500521,4.222125 Z M10.815918,4.222125 C10.4880703,4.222125 10.2223346,3.94075781 10.2223346,3.59355469 C10.2223346,3.24642187 10.4880482,2.96498437 10.815918,2.96498437 C11.1438763,2.96498437 11.409612,3.24639844 11.409612,3.59355469 C11.409612,3.94073437 11.1438984,4.222125 10.815918,4.222125 Z" id="Shape"></path>
                        </g>
                    </g>
                </g>
            </g>
        </g>
    </g>
</svg>