<?xml version="1.0" encoding="UTF-8"?>
<svg width="20px" height="20px" viewBox="0 0 20 20" version="1.1" xmlns="http://www.w3.org/2000/svg" xmlns:xlink="http://www.w3.org/1999/xlink">
    <!-- Generator: Sketch 53.1 (72631) - https://sketchapp.com -->
    <title>chrom</title>
    <desc>Created with Sketch.</desc>
    <g id="2-7-首页安装方式修改" stroke="none" stroke-width="1" fill="none" fill-rule="evenodd">
        <g id="首页" transform="translate(-728.000000, -629.000000)" fill="#021C31" fill-rule="nonzero">
            <g id="Group-3" transform="translate(360.000000, 419.000000)">
                <g id="Group-9" transform="translate(0.000000, 199.000000)">
                    <g id="Group-7-Copy" transform="translate(341.000000, 0.000000)">
                        <g id="chrom" transform="translate(27.000000, 11.000000)">
                            <path d="M5.05151459,8.72251791 L2.19327951,3.76628342 C4.02192264,1.4691093 6.84134217,0 9.99794719,0 C13.6519008,0 16.8492817,1.96724203 18.5883354,4.90350025 L10.4425615,4.90350025 C10.2963171,4.8897776 10.1485044,4.88389645 10.0001036,4.88389645 C7.62333805,4.88174002 5.61924086,6.51708961 5.05151459,8.72251791 Z M13.5736816,6.34692857 L19.2960329,6.34692857 C19.7508076,7.51106891 19.9835305,8.75008563 19.9821661,9.99990197 C19.9821661,15.4854393 15.573662,19.9376599 10.1124334,19.999804 L14.1955144,12.9144 C15.6142188,10.8657566 15.3517766,8.09318802 13.5738776,6.34712461 L13.5736816,6.34692857 Z M6.3733993,10.000098 C6.3733993,7.99580479 7.9995351,6.36653238 10.0001036,6.36653238 C12.0006721,6.36653238 13.6268079,7.99580479 13.6268079,10.000098 C13.6268079,12.0043913 12.0006721,13.6340557 10.0001036,13.6340557 C7.99953512,13.6340557 6.37339932,12.0045873 6.3733993,10.000098 Z M11.3657048,14.9328079 L8.50943012,19.8925711 C3.70061625,19.1721312 0.0174529687,15.0186726 0.0174529687,10.000098 C0.0148781938,8.28251956 0.456179533,6.59341926 1.29856176,5.09659775 L5.37615363,12.1702395 C6.19324031,13.9128219 7.95934729,15.1202203 10.0026521,15.1202204 C10.4634092,15.1199916 10.9219837,15.0569401 11.3657048,14.9328079 Z" id="Shape"></path>
                        </g>
                    </g>
                </g>
            </g>
        </g>
    </g>
</svg>