<svg width="20" height="20" viewBox="0 0 20 20" fill="none" xmlns="http://www.w3.org/2000/svg">
<path d="M10.0698 18.9993C6.19294 18.9993 3.1093 16.6576 1.69316 13.3104C0.106024 9.59047 1.37175 3.63159 4.19439 1L4.08383 3.91213C4.22461 3.72577 5.29941 3.67404 5.46976 3.91213C6.05216 2.76213 7.93049 1.90196 9.43728 1.87079C8.86452 2.36819 7.53901 4.18139 7.64958 5.1039C8.38304 5.34199 9.50799 5.3526 10.1007 5.39438C10.2813 5.49784 10.2511 6.12988 9.88982 6.6485C9.88982 6.6485 9.41799 7.32232 8.14198 7.56041L8.2924 9.51885L6.89619 8.82447C6.44428 10.0056 7.52873 11.0522 8.65367 10.8559C9.89882 10.6383 10.3411 9.79872 11.2147 9.85045C12.0786 9.90218 12.42 10.3996 12.3094 10.8658C12.3094 10.8658 12.1686 11.4256 11.2346 11.332C10.4414 12.6273 9.38649 13.197 7.67915 13.0418C10.2704 15.2595 13.7661 13.2494 14.6499 11.4355C15.5338 9.63225 14.7605 6.94827 13.8766 6.19222C14.9212 6.65845 15.6444 7.13529 16.0262 8.18183C16.2274 5.86062 15.1925 3.22836 13.3444 1.68443C16.8195 2.73096 18.9389 5.50846 18.9993 9.9433C19.0597 14.3781 15.1925 19 10.0698 19V18.9993Z" fill="#021C31"/>
</svg>
