<?xml version="1.0" encoding="UTF-8"?>
<svg width="20px" height="22px" viewBox="0 0 20 22" version="1.1" xmlns="http://www.w3.org/2000/svg" xmlns:xlink="http://www.w3.org/1999/xlink">
    <!-- Generator: Sketch 53.1 (72631) - https://sketchapp.com -->
    <title>Google Play logo</title>
    <desc>Created with Sketch.</desc>
    <g id="2-7-首页安装方式修改" stroke="none" stroke-width="1" fill="none" fill-rule="evenodd">
        <g id="Google-Play-logo" fill="#000000" fill-rule="nonzero">
            <path d="M0.0116523605,20.492334 L0.0116523605,1.50766602 C0.0106481366,0.864861892 0.378244694,0.278539738 0.956888412,0 L12.0438841,11 L0.956888412,22 C0.380301731,21.7191607 0.0136108434,21.1342831 0.0116523605,20.492334 L0.0116523605,20.492334 Z M15.5541202,14.4843359 L3.44429185,21.4306641 L12.9997854,11.9493301 L15.5548069,14.4826602 L15.5541202,14.4843359 Z M19.3246781,9.66934375 C19.7390424,9.98667237 19.9839133,10.4777174 19.9882403,11 C19.9938904,11.5159333 19.7561045,12.0043013 19.3466738,12.3176582 L16.7693562,13.792002 L13.9556438,11 L16.7693562,8.20799805 L19.3240343,9.67099805 L19.3246781,9.66934375 Z M3.44429185,0.569335938 L15.5541202,7.51566406 L12.9990987,10.0489941 L3.44429185,0.569335938 Z" id="Shape"></path>
        </g>
    </g>
</svg>