<?xml version="1.0" encoding="UTF-8"?>
<svg width="15px" height="19px" viewBox="0 0 15 19" version="1.1" xmlns="http://www.w3.org/2000/svg" xmlns:xlink="http://www.w3.org/1999/xlink">
    <!-- Generator: Sketch 53.1 (72631) - https://sketchapp.com -->
    <title>iOS</title>
    <desc>Created with Sketch.</desc>
    <g id="2-7-首页安装方式修改" stroke="none" stroke-width="1" fill="none" fill-rule="evenodd">
        <g id="首页" transform="translate(-565.000000, -628.000000)" fill="#021C31" fill-rule="nonzero">
            <g id="Group-3" transform="translate(360.000000, 419.000000)">
                <g id="Group-9" transform="translate(0.000000, 199.000000)">
                    <g id="Group-7" transform="translate(160.000000, 0.000000)">
                        <g id="iOS" transform="translate(45.000000, 10.000000)">
                            <path d="M12.4837214,10.0688458 C12.4837214,7.66245493 14.3862735,6.52258562 14.4476462,6.45925954 C13.3429385,4.81278161 11.685877,4.6228034 11.0721506,4.55947732 C9.66057968,4.43282518 8.2490088,5.44604235 7.57390968,5.44604235 C6.83743792,5.44604235 5.73273026,4.6228034 4.56664997,4.6228034 C3.03233379,4.6228034 1.55939025,5.5726945 0.761545838,7.02919421 C-0.834142998,9.94219361 0.331937302,14.2483666 1.92762614,16.5914314 C2.72547055,17.7313007 3.64606027,19.0611483 4.81214057,18.9978222 C5.97822086,18.9344961 6.4078294,18.2379093 7.81940028,18.2379093 C9.23097116,18.2379093 9.59920706,18.9978222 10.8880326,18.9978222 C12.1154856,18.9978222 12.91333,17.7946268 13.7111744,16.6547575 C14.5703915,15.3249099 14.9386274,13.9950624 15,13.9317363 C14.9386273,13.9317363 12.4837214,12.9818452 12.4837214,10.0688458 Z M10.1515608,3.03965156 C10.7652873,2.2164126 11.2562685,1.13986934 11.1335232,0 C10.2129335,0.0633260722 9.10822586,0.63326074 8.43312674,1.4564997 C7.81940026,2.15308651 7.32841908,3.29295584 7.45116437,4.36949909 C8.43312674,4.43282518 9.53783437,3.86289051 10.1515608,3.03965156 Z" id="Shape"></path>
                        </g>
                    </g>
                </g>
            </g>
        </g>
    </g>
</svg>